<?xml version="1.0" encoding="UTF-8"?>
<svg id="Calque_1" xmlns="http://www.w3.org/2000/svg" viewBox="0 0 270.13 225.19">
  <defs>
    <style>
      .cls-1 {
        fill: #fff;
      }

      .cls-2 {
        fill: #000dff;
        stroke: red;
        stroke-miterlimit: 10;
        stroke-width: 4.16px;
      }
    </style>
  </defs>
  <g>
    <path class="cls-1" d="M19.17,150.09c0-.38.2-.58.58-.58h1.46c.38,0,.58.2.58.58s.29.5.73.2c.67-.47,1.49-.79,2.62-.79,1.54,0,2.56.61,3.32,1.46.14.18.26.29.44.29.14,0,.26-.09.44-.26.82-.84,1.92-1.49,3.61-1.49,2.83,0,4.87,1.84,4.87,5.63v8.57c0,.38-.2.58-.58.58h-1.46c-.38,0-.58-.2-.58-.58v-8.51c0-2.21-.96-3.23-2.62-3.23s-2.77,1.02-2.77,3.23v8.51c0,.38-.2.58-.58.58h-1.46c-.38,0-.58-.2-.58-.58v-8.51c0-2.21-.96-3.23-2.62-3.23s-2.77,1.02-2.77,3.23v8.51c0,.38-.2.58-.58.58h-1.46c-.38,0-.58-.2-.58-.58v-13.61Z"/>
    <path class="cls-1" d="M51.22,164.28h-1.46c-.38,0-.58-.2-.58-.58s-.29-.49-.73-.2c-.67.47-1.46.79-2.68.79-2.91,0-5.16-1.87-5.16-5.62v-3.53c0-3.76,2.24-5.63,5.16-5.63,1.22,0,2.01.32,2.68.79.44.29.73.18.73-.2s.2-.58.58-.58h1.46c.38,0,.58.2.58.58v13.61c0,.38-.2.58-.58.58ZM46.21,161.83c1.89,0,2.97-1.02,2.97-3.23v-3.41c0-2.21-1.08-3.23-2.97-3.23s-2.97,1.02-2.97,3.23v3.41c0,2.22,1.08,3.23,2.97,3.23Z"/>
    <path class="cls-1" d="M56.94,158.77v-6.32c0-.29-.15-.44-.44-.44h-1.63c-.38,0-.58-.2-.58-.58v-1.46c0-.35.09-.55.32-.79l2.91-2.83c.23-.2.52-.35.82-.35h.64c.38,0,.58.2.58.58v2.48c0,.29.14.44.44.44h2.54c.38,0,.58.2.58.58v1.34c0,.38-.2.58-.58.58h-2.54c-.29,0-.44.14-.44.44v6.27c0,2.22,1.08,3.24,2.97,3.24.38,0,.58.2.58.58v1.34c0,.38-.2.58-.58.58-3.41,0-5.6-1.92-5.6-5.68Z"/>
    <path class="cls-1" d="M65.75,163.7v-19.24c0-.38.2-.58.58-.58h1.46c.38,0,.58.2.58.58v5.62c0,.38.29.5.73.2.67-.47,1.46-.79,2.68-.79,2.91,0,5.16,1.87,5.16,5.63v8.57c0,.38-.2.58-.58.58h-1.46c-.38,0-.58-.2-.58-.58v-8.51c0-2.21-1.08-3.23-2.97-3.23s-2.97,1.02-2.97,3.23v8.51c0,.38-.2.58-.58.58h-1.46c-.38,0-.58-.2-.58-.58Z"/>
    <path class="cls-1" d="M85.31,162.12c1.46,0,2.42-.58,2.8-1.89.09-.35.32-.52.67-.44l1.43.38c.35.09.55.32.47.67-.58,2.45-2.51,3.79-5.36,3.79-3.41,0-5.6-1.92-5.6-5.68v-4.11c0-3.76,2.19-5.68,5.6-5.68s5.6,1.92,5.6,5.68v2.3c0,.38-.2.58-.58.58h-7.55c-.29,0-.44.14-.44.44v.73c0,2.21,1.08,3.23,2.97,3.23ZM87.85,155.33c.29,0,.44-.15.44-.44,0-2.21-1.08-3.23-2.97-3.23s-2.97,1.02-2.97,3.23c0,.29.14.44.44.44h5.07Z"/>
    <path class="cls-1" d="M93.54,158.95v-4.11c0-3.76,2.19-5.68,5.6-5.68s5.6,1.92,5.6,5.68v4.11c0,3.76-2.19,5.68-5.6,5.68s-5.6-1.92-5.6-5.68ZM102.11,158.89v-3.99c0-2.21-1.08-3.23-2.97-3.23s-2.97,1.02-2.97,3.23v3.99c0,2.21,1.08,3.23,2.97,3.23s2.97-1.02,2.97-3.23Z"/>
    <path class="cls-1" d="M115.26,164.28h-1.46c-.38,0-.58-.2-.58-.58v-19.24c0-.38.2-.58.58-.58h1.46c.38,0,.58.2.58.58v5.62c0,.38.29.5.73.2.67-.47,1.46-.79,2.68-.79,2.91,0,5.16,1.87,5.16,5.63v3.53c0,3.76-2.25,5.62-5.16,5.62-1.22,0-2.01-.32-2.68-.79-.44-.29-.73-.17-.73.2s-.2.58-.58.58ZM121.79,155.19c0-2.21-1.08-3.23-2.97-3.23s-2.97,1.02-2.97,3.23v3.41c0,2.22,1.08,3.23,2.97,3.23s2.97-1.02,2.97-3.23v-3.41Z"/>
    <path class="cls-1" d="M137.66,164.28h-1.46c-.38,0-.58-.2-.58-.58s-.29-.49-.73-.2c-.67.47-1.46.79-2.68.79-2.91,0-5.16-1.87-5.16-5.62v-3.53c0-3.76,2.24-5.63,5.16-5.63,1.22,0,2.01.32,2.68.79.44.29.73.18.73-.2s.2-.58.58-.58h1.46c.38,0,.58.2.58.58v13.61c0,.38-.2.58-.58.58ZM132.64,161.83c1.89,0,2.97-1.02,2.97-3.23v-3.41c0-2.21-1.08-3.23-2.97-3.23s-2.97,1.02-2.97,3.23v3.41c0,2.22,1.08,3.23,2.97,3.23Z"/>
    <path class="cls-1" d="M146.91,162.12c1.46,0,2.42-.58,2.8-1.89.09-.35.32-.52.67-.44l1.43.38c.35.09.55.32.47.67-.58,2.45-2.51,3.79-5.36,3.79-3.41,0-5.6-1.92-5.6-5.68v-4.11c0-3.76,2.19-5.68,5.6-5.68,2.86,0,4.78,1.34,5.36,3.79.09.35-.12.58-.47.67l-1.43.38c-.35.09-.58-.09-.67-.44-.38-1.31-1.34-1.89-2.8-1.89-1.9,0-2.97,1.02-2.97,3.23v3.99c0,2.21,1.08,3.23,2.97,3.23Z"/>
    <path class="cls-1" d="M155.1,163.7v-19.24c0-.38.2-.58.58-.58h1.46c.38,0,.58.2.58.58v5.62c0,.38.29.5.73.2.67-.47,1.46-.79,2.68-.79,2.91,0,5.16,1.87,5.16,5.63v8.57c0,.38-.2.58-.58.58h-1.46c-.38,0-.58-.2-.58-.58v-8.51c0-2.21-1.08-3.23-2.97-3.23s-2.97,1.02-2.97,3.23v8.51c0,.38-.2.58-.58.58h-1.46c-.38,0-.58-.2-.58-.58Z"/>
  </g>
  <rect class="cls-2" x="21.18" y="21.9" width="228.66" height="20.32"/>
  <rect class="cls-2" x="21.18" y="102.44" width="228.66" height="20.32"/>
  <rect class="cls-2" x="21.18" y="122.57" width="228.66" height="20.32"/>
  <rect class="cls-2" x="21.18" y="182.97" width="228.66" height="20.32"/>
  <rect class="cls-2" x="21.18" y="162.84" width="228.66" height="20.32"/>
  <rect class="cls-2" x="21.18" y="82.3" width="228.66" height="20.32"/>
  <rect class="cls-2" x="21.18" y="62.17" width="228.66" height="20.32"/>
  <rect class="cls-2" x="21.18" y="42.04" width="228.66" height="20.32"/>
</svg>